<svg width="64" height="64" viewBox="0 0 64 64" fill="none" xmlns="http://www.w3.org/2000/svg">
<path fill-rule="evenodd" clip-rule="evenodd" d="M47.4789 42.5134C48.9885 42.3277 51.3872 42.4425 51.8593 43.0583H51.8592C52.218 43.5272 51.8473 45.6347 51.2393 47.1455C50.6272 48.6481 49.7151 49.7099 49.2112 50.1199C48.7003 50.53 48.3244 50.3712 48.5964 49.7554C48.8779 49.1396 50.4192 45.3211 49.8084 44.5196C49.2426 43.7786 46.6757 44.0469 45.4833 44.1715C45.3946 44.1807 45.3135 44.1892 45.2414 44.1964C44.9895 44.2191 44.7865 44.2418 44.6221 44.2602C44.1088 44.3175 43.9716 44.3328 43.8949 44.1752C43.6976 43.6194 45.967 42.6938 47.4789 42.5134ZM11.8248 43.131C18.8231 47.4049 29.6559 54.0205 46.9218 45.7897H46.9216C47.6657 45.4786 48.1858 45.998 47.4495 46.9397C46.7083 47.8893 40.7827 53.3334 30.8222 53.3334C20.8685 53.3334 13.2429 46.5216 10.9161 43.6956C10.2787 42.9623 11.0133 42.6311 11.4455 42.8995C11.5707 42.9758 11.6971 43.053 11.8248 43.131Z" fill="black"/>
<path fill-rule="evenodd" clip-rule="evenodd" d="M40.4641 13.4152C38.2941 11.3826 34.7559 10.6667 32.0409 10.6667C26.6832 10.6667 20.6995 12.6674 19.4393 19.3043C19.3125 20.011 19.8197 20.384 20.2793 20.4874L25.7482 21.0748C26.2554 21.051 26.6277 20.5508 26.723 20.0426C27.1906 17.7562 29.1086 16.6527 31.2564 16.6527C32.4137 16.6527 33.7293 17.0815 34.4189 18.1215C35.0622 19.0719 35.1088 20.3106 35.1048 21.4655L35.1044 21.5498L35.1036 21.6757L35.1017 21.9249L35.1012 22.007L35.1008 22.0886L35.1005 22.21V22.9405C34.7413 22.9815 34.37 23.0209 33.9894 23.0603L33.7809 23.0818L33.0382 23.1581L32.8228 23.1803C30.0141 23.4721 26.8901 23.8486 24.5037 24.9014C20.977 26.4256 18.4961 29.5457 18.4961 34.1264C18.4961 39.9933 22.1895 42.9228 26.9291 42.9228C30.9395 42.9228 33.127 41.9781 36.218 38.8183C36.2695 38.8926 36.3193 38.9649 36.3676 39.0355L36.4249 39.1195L36.453 39.1608L36.5084 39.2425L36.5627 39.3226L36.7451 39.593L36.7955 39.6676L36.8454 39.7412L36.8702 39.7776L36.9195 39.8498C37.5254 40.735 38.0676 41.43 39.4517 42.5814C39.8675 42.8016 40.3999 42.7803 40.772 42.4564L40.7831 42.4466L40.7989 42.4624L40.8329 42.4322L40.9744 42.3067L41.1238 42.1744L41.3206 42.0004L41.4436 41.892L41.6127 41.7431L41.8312 41.551L42.1022 41.3134L42.2406 41.1923L42.4745 40.9878L42.7113 40.7813L42.9497 40.5738L43.1405 40.408L43.3308 40.243L43.5198 40.0794L43.6603 39.958L43.8454 39.7985L44.0273 39.642L44.1612 39.5271L44.2926 39.4146L44.3787 39.341L44.5053 39.233L44.588 39.1627L44.709 39.0599L44.7876 38.9933L44.9022 38.8966L44.9762 38.8342L45.0483 38.7737L45.1183 38.7151C45.5781 38.3342 45.4987 37.7227 45.1342 37.2147C45.0827 37.1432 45.031 37.0724 44.9793 37.0021L44.9173 36.9179L44.8863 36.876L44.7626 36.7088L44.7009 36.6255L44.6395 36.5423C43.7819 35.3767 43.0102 34.2036 43.0102 31.9829V23.1865C43.0102 23.0375 43.0106 22.8891 43.0112 22.7411L43.0123 22.5196L43.0153 21.9694C43.0314 18.7207 42.9701 15.7594 40.5294 13.4772L40.4641 13.4152ZM26.723 33.1499C26.723 28.3388 31.0265 27.4656 35.1005 27.4656L35.1005 28.7541L35.101 29.2734L35.1009 29.4013C35.0986 31.2922 35.0339 32.936 34.0464 34.6741C33.1507 36.262 31.732 37.2384 30.1469 37.2384C27.9831 37.2384 26.723 35.5871 26.723 33.1499Z" fill="black"/>
</svg>
