<svg width="49" height="48" viewBox="0 0 49 48" fill="none" xmlns="http://www.w3.org/2000/svg">
<circle cx="24.5" cy="24" r="24" fill="#001E36"/>
<path fill-rule="evenodd" clip-rule="evenodd" d="M11.5 14.3148V33.3704C11.5 33.537 11.572 33.6111 11.7161 33.6111H15.1369H15.2089C15.335 33.5926 15.425 33.4815 15.407 33.3519V27.4074C15.7491 27.4074 16.0011 27.4074 16.1812 27.4259C16.3612 27.4444 16.6493 27.4444 17.0814 27.4444C18.5578 27.4444 19.9081 27.2778 21.1324 26.8148C22.3027 26.3704 23.311 25.5926 24.0311 24.5556C24.7513 23.5185 25.1114 22.2037 25.1114 20.6111C25.1114 19.7778 24.9674 18.9815 24.6973 18.2037C24.4092 17.4074 23.9591 16.6852 23.383 16.0926C22.6988 15.4074 21.8706 14.8889 20.9704 14.5741C19.9621 14.1852 18.7378 14 17.2614 14C16.7213 14 16.1812 14 15.623 14.0185C15.3536 14.0275 15.0925 14.0321 14.8398 14.0366C14.5691 14.0414 14.3081 14.046 14.0566 14.0556C13.8209 14.0645 13.5936 14.0692 13.3727 14.0737C13.1381 14.0784 12.9108 14.0831 12.6883 14.0926C12.2742 14.1111 11.9861 14.1111 11.68 14.1111C11.554 14.1111 11.5 14.1852 11.5 14.3148ZM15.425 23.9074V17.6852C15.551 17.6667 15.8031 17.6481 16.1632 17.6667C16.5053 17.6481 16.9194 17.6481 17.3875 17.6481C18.1257 17.6296 18.8458 17.7407 19.512 18.0185C20.0341 18.2222 20.4662 18.5926 20.7723 19.0741C21.0604 19.5741 21.2044 20.1481 21.1864 20.7222C21.1864 21.537 21.0064 22.1667 20.6283 22.6296C20.2322 23.0926 19.7281 23.4444 19.1519 23.6111C18.4857 23.8333 17.7836 23.9444 17.0814 23.9444H16.1272C15.9266 23.9444 15.7106 23.9285 15.479 23.9114C15.4611 23.9101 15.4431 23.9087 15.425 23.9074Z" fill="#31A8FF"/>
<path d="M36.3463 22.7777C35.8061 22.4814 35.23 22.2777 34.6178 22.1481C33.9517 21.9999 33.2855 21.9073 32.6013 21.9073C32.2412 21.8888 31.8631 21.9444 31.5211 22.037C31.287 22.0925 31.089 22.2222 30.9629 22.4073C30.8729 22.5555 30.8189 22.7407 30.8189 22.9073C30.8189 23.074 30.8909 23.2407 30.9989 23.3888C31.161 23.5925 31.377 23.7592 31.6111 23.8888C32.0252 24.111 32.4573 24.3148 32.8894 24.4999C33.8616 24.8333 34.7979 25.2962 35.6621 25.8518C36.2562 26.2407 36.7424 26.7592 37.0844 27.3888C37.3725 27.9814 37.5166 28.6296 37.4986 29.2962C37.5166 30.1666 37.2645 31.037 36.7964 31.7592C36.2923 32.4999 35.5901 33.074 34.7799 33.4073C33.8977 33.7962 32.8174 33.9999 31.5211 33.9999C30.6929 33.9999 29.8826 33.9259 29.0724 33.7592C28.4423 33.6481 27.8121 33.4444 27.236 33.1666C27.11 33.0925 27.0199 32.9629 27.0379 32.8148V29.5925C27.0379 29.537 27.0559 29.4629 27.11 29.4259C27.164 29.3888 27.218 29.4073 27.272 29.4444C27.9742 29.8703 28.7124 30.1666 29.5046 30.3518C30.1887 30.537 30.9089 30.6296 31.6291 30.6296C32.3133 30.6296 32.7994 30.537 33.1235 30.3703C33.4115 30.2407 33.6096 29.9259 33.6096 29.5925C33.6096 29.3333 33.4655 29.0925 33.1775 28.8518C32.8894 28.611 32.2953 28.3333 31.413 27.9814C30.4948 27.6481 29.6486 27.2036 28.8564 26.6481C28.2983 26.2407 27.8301 25.7036 27.4881 25.074C27.2 24.4814 27.0559 23.8333 27.0739 23.1851C27.0739 22.3888 27.29 21.6296 27.6861 20.9444C28.1362 20.2036 28.8024 19.611 29.5766 19.2407C30.4228 18.7962 31.485 18.5925 32.7634 18.5925C33.5016 18.5925 34.2577 18.6481 34.9959 18.7592C35.5361 18.8333 36.0582 18.9814 36.5443 19.1851C36.6163 19.2036 36.6884 19.2777 36.7244 19.3518C36.7424 19.4259 36.7604 19.4999 36.7604 19.574V22.5925C36.7604 22.6666 36.7244 22.7407 36.6703 22.7777C36.5083 22.8148 36.4183 22.8148 36.3463 22.7777Z" fill="#31A8FF"/>
</svg>
