<svg width="49" height="48" viewBox="0 0 49 48" fill="none" xmlns="http://www.w3.org/2000/svg">
<circle cx="24.7" cy="24" r="24" fill="#2C2C2C"/>
<path d="M19.7 39C22.46 39 24.7 36.76 24.7 34V29H19.7C16.94 29 14.7 31.24 14.7 34C14.7 36.76 16.94 39 19.7 39Z" fill="#0ACF83"/>
<path d="M14.7 24C14.7 21.24 16.94 19 19.7 19H24.7V29H19.7C16.94 29 14.7 26.76 14.7 24Z" fill="#A259FF"/>
<path d="M14.7 14C14.7 11.24 16.94 9 19.7 9H24.7V19H19.7C16.94 19 14.7 16.76 14.7 14Z" fill="#F24E1E"/>
<path d="M24.7 9H29.7C32.46 9 34.7 11.24 34.7 14C34.7 16.76 32.46 19 29.7 19H24.7V9Z" fill="#FF7262"/>
<path d="M34.7 24C34.7 26.76 32.46 29 29.7 29C26.94 29 24.7 26.76 24.7 24C24.7 21.24 26.94 19 29.7 19C32.46 19 34.7 21.24 34.7 24Z" fill="#1ABCFE"/>
</svg>
