<svg width="49" height="48" viewBox="0 0 49 48" fill="none" xmlns="http://www.w3.org/2000/svg">
<circle cx="24.2998" cy="24" r="24" fill="#470137"/>
<path d="M25.8474 15.782L20.7425 24.3206L26.2037 33.3887C26.2387 33.4521 26.2483 33.5266 26.2307 33.597C26.2118 33.6625 26.149 33.6206 26.0386 33.6397H22.1455C21.8718 33.6397 21.6788 33.6297 21.5693 33.4442C21.203 32.7212 20.8371 32.0026 20.4715 31.2881C20.1058 30.5737 19.7168 29.8459 19.3045 29.1048C18.8922 28.3631 18.485 27.612 18.0828 26.8514H18.0559C17.6897 27.5932 17.31 28.3349 16.9168 29.0766C16.5237 29.8183 16.1347 30.5552 15.7499 31.2872C15.3657 32.0198 14.9725 32.7476 14.5704 33.4705C14.4968 33.6379 14.3684 33.6525 14.1853 33.6525H10.426C10.3533 33.6525 10.312 33.6816 10.3031 33.6079C10.2927 33.5401 10.3074 33.4707 10.3443 33.4132L15.6404 24.5962L10.4763 15.751C10.4206 15.6774 10.4117 15.6173 10.4494 15.5691C10.4903 15.5211 10.5512 15.4954 10.6136 15.5H14.4824C14.567 15.4947 14.6517 15.5087 14.7302 15.5409C14.7956 15.579 14.8518 15.6315 14.8945 15.6946C15.2242 16.4364 15.5904 17.1781 15.9932 17.9198C16.3959 18.6615 16.8028 19.3939 17.2139 20.1168C17.6257 20.8397 18.0054 21.572 18.353 22.3138H18.38C18.7456 21.5538 19.116 20.8121 19.4912 20.0886C19.8664 19.3651 20.2506 18.6373 20.6438 17.9053C21.0376 17.1732 21.4173 16.4455 21.7829 15.7219C21.8042 15.6529 21.8421 15.5904 21.8933 15.54C21.9609 15.5053 22.037 15.4911 22.1123 15.4991H25.7029C25.7433 15.4889 25.7861 15.4955 25.8218 15.5173C25.8575 15.5391 25.8832 15.5745 25.8932 15.6155C25.9082 15.6753 25.8875 15.7385 25.8402 15.7774L25.8474 15.782Z" fill="#FF61F6"/>
<path fill-rule="evenodd" clip-rule="evenodd" d="M30.0608 33.2203C31.2099 33.7526 32.4617 34.0186 33.725 33.999C34.61 33.9954 35.4929 33.9114 36.3631 33.7479C37.3137 33.5705 38.2429 33.2909 39.135 32.9137C39.2409 32.8639 39.3061 32.7535 39.2993 32.6353C39.2807 32.3381 39.2577 32.0046 39.2301 31.6346C39.2026 31.2647 39.1889 30.9217 39.1889 30.6057V14.168C39.191 14.1545 39.191 14.1407 39.1889 14.1271C39.1835 14.0882 39.1631 14.053 39.1321 14.0295C39.1011 14.0059 39.062 13.9959 39.0237 14.0016H35.566C35.4556 14.0016 35.4008 14.0671 35.4008 14.1962V19.6809C35.1989 19.6627 35.0274 19.6482 34.8793 19.6391C34.7312 19.63 34.61 19.6245 34.5203 19.6245C33.0233 19.5797 31.5399 19.9242 30.2116 20.6252C29.0764 21.2389 28.1348 22.1643 27.4945 23.2952C26.8734 24.4041 26.5514 25.6591 26.5609 26.9341C26.511 28.3078 26.8339 29.669 27.4945 30.8696C28.0952 31.8985 28.9902 32.7183 30.0608 33.2203ZM35.399 22.9577V30.5502H35.3973C35.2041 30.6083 35.0056 30.6458 34.8048 30.6621C34.5846 30.6809 34.3467 30.6903 34.0912 30.6903C33.6112 30.6929 33.1339 30.6177 32.6774 30.4675C32.2452 30.3296 31.8506 30.0916 31.5249 29.7724C31.1845 29.4255 30.9221 29.0081 30.7556 28.5489C30.5518 27.9786 30.4541 27.3749 30.4674 26.7685C30.4311 25.9954 30.6274 25.2292 31.0303 24.5716C31.3918 24.0265 31.8867 23.5858 32.4665 23.2925C33.0634 22.9931 33.7214 22.8404 34.3874 22.8468C34.5759 22.8461 34.7635 22.8552 34.9502 22.874C35.1019 22.889 35.252 22.917 35.399 22.9577Z" fill="#FF61F6"/>
</svg>
