<svg width="49" height="48" viewBox="0 0 49 48" fill="none" xmlns="http://www.w3.org/2000/svg">
<circle cx="24.0999" cy="24" r="24" fill="#330000"/>
<path fill-rule="evenodd" clip-rule="evenodd" d="M16.4323 29.5947H23.1544L24.6362 33.7885C24.6723 33.9119 24.7988 34 24.9253 33.9824H28.702C28.8827 33.9824 28.9369 33.8942 28.8827 33.7004L22.287 15.5506C22.269 15.4625 22.1967 15.4097 22.0521 15.4097H17.4262H17.3719C17.2816 15.4273 17.2093 15.5154 17.2274 15.6035C17.2274 15.9912 17.1912 16.3788 17.119 16.7489C17.0677 16.8987 17.0256 17.0397 16.9861 17.1718C16.9699 17.2261 16.9541 17.279 16.9383 17.3304L11.1197 33.6652C11.0654 33.8766 11.1197 33.9824 11.3184 33.9824H14.7156C14.8783 34 15.0228 33.8942 15.059 33.7357L16.4323 29.5947ZM22.0702 26.0176H17.4804C17.7514 25.2775 18.0225 24.4493 18.2755 23.5506C18.4544 23.0052 18.6265 22.4597 18.7959 21.9226C18.9002 21.5922 19.0034 21.2649 19.1067 20.9427C19.3597 20.185 19.5584 19.4273 19.7211 18.6696H19.7572C19.8277 18.9053 19.8982 19.152 19.9719 19.4097C20.0303 19.6142 20.0908 19.8257 20.1548 20.044C20.2993 20.555 20.4619 21.0661 20.6426 21.6123C20.733 21.8854 20.8188 22.1542 20.9047 22.4229C20.9905 22.6916 21.0763 22.9603 21.1667 23.2335C21.3293 23.7621 21.4919 24.2731 21.6546 24.7489C21.8172 25.207 21.9618 25.6476 22.0702 26.0176Z" fill="#FF9A00"/>
<path fill-rule="evenodd" clip-rule="evenodd" d="M31.2138 17.8062C31.6475 18.2115 32.2258 18.4405 32.8221 18.4229C33.4365 18.4581 34.0508 18.2291 34.4665 17.8062C34.9001 17.3656 35.117 16.7841 35.0989 16.185C35.117 15.6035 34.9001 15.0396 34.5026 14.6167C34.1051 14.2115 33.5629 14 32.8582 14C32.2619 14 31.6836 14.2115 31.25 14.6167C30.8163 15.022 30.5814 15.5859 30.5994 16.185C30.5814 16.7841 30.7982 17.3656 31.2138 17.8062ZM30.7982 20.1498V33.7181C30.7982 33.8943 30.8886 34 31.0693 34H34.611C34.7736 34 34.8459 33.9119 34.8459 33.7181V20.1498C34.8459 19.9912 34.7736 19.9031 34.611 19.9031H31.0331C30.8705 19.9031 30.7982 19.9736 30.7982 20.1498Z" fill="#FF9A00"/>
</svg>
