<svg width="64" height="64" viewBox="0 0 64 64" fill="none" xmlns="http://www.w3.org/2000/svg">
<path d="M23.8513 18.6668C26.9272 18.6668 29.757 19.732 32 21.5175C31.4606 21.9469 30.955 22.418 30.4882 22.926C27.5349 23.9517 25.3334 27.9235 25.3334 32.6667C25.3334 38.0728 28.1933 42.477 31.7676 42.6607C29.5636 44.3396 26.8223 45.3334 23.8513 45.3334C16.5695 45.3334 10.6667 39.3638 10.6667 32.0001C10.6667 24.6364 16.5695 18.6668 23.8513 18.6668Z" fill="black"/>
<path d="M40.1412 18.6667C47.4226 18.6667 53.3258 24.6363 53.3258 32C53.3258 39.3636 47.4226 45.3332 40.1412 45.3332C37.1706 45.3332 34.4292 44.3398 32.2248 42.6634L32 42.6667C35.6819 42.6667 38.6667 38.1895 38.6667 32.6667C38.6667 27.9178 36.4599 23.9421 33.5006 22.921C33.0348 22.4156 32.5305 21.9458 31.9924 21.5174C34.2351 19.7319 37.0653 18.6667 40.1412 18.6667Z" fill="black"/>
<ellipse cx="32" cy="32.6667" rx="5.33333" ry="8.66667" fill="black"/>
</svg>
