<svg width="64" height="64" viewBox="0 0 64 64" fill="none" xmlns="http://www.w3.org/2000/svg">
<path opacity="0.681716" d="M45.3182 13.8841C43.35 11.6315 39.7954 10.6667 35.2462 10.6667H22.044C21.115 10.6667 20.3233 11.3455 20.1783 12.2686L14.6807 47.2824C14.6287 47.6111 14.7227 47.9461 14.938 48.1992C15.1534 48.4523 15.4684 48.5982 15.8001 48.5983H23.9513L23.3887 52.1814C23.3432 52.4689 23.4254 52.7621 23.6138 52.9836C23.8021 53.2052 24.0777 53.333 24.368 53.3334H31.2382C32.0518 53.3327 32.744 52.7384 32.87 51.9321L32.9377 51.5811L34.2311 43.3387L34.3152 42.8829C34.4413 42.0767 35.1335 41.4824 35.947 41.4817H36.9746C43.6303 41.4817 48.8418 38.7666 50.3653 30.912C51.0004 27.6296 50.6727 24.8902 48.9897 22.9634C48.4802 22.3816 47.848 21.8997 47.1094 21.506C47.6266 18.1877 47.1056 15.9302 45.3182 13.8841V13.8841Z" fill="black"/>
<path d="M45.3182 13.8841C43.35 11.6315 39.7954 10.6667 35.2462 10.6667H22.044C21.115 10.6667 20.3233 11.3455 20.1783 12.2686L14.6807 47.2824C14.6287 47.6111 14.7227 47.9461 14.938 48.1992C15.1534 48.4523 15.4684 48.5982 15.8001 48.5983H23.9513L25.9968 35.5588L25.934 35.968C26.0747 35.0471 26.8641 34.3668 27.793 34.3661H31.6665C39.2744 34.3661 45.2321 31.2621 46.9731 22.2837C47.0227 22.0252 47.0678 21.7659 47.1085 21.506C47.6257 18.1877 47.1046 15.9302 45.3172 13.8841H45.3182Z" fill="black" fill-opacity="0.7"/>
<path d="M29.1164 20.3123C29.3339 20.2075 29.5755 20.1494 29.8307 20.1494H40.1782C41.404 20.1494 42.5466 20.2298 43.5926 20.3995C43.8913 20.448 44.1823 20.5033 44.4646 20.5654C44.8738 20.6572 45.2783 20.7688 45.6768 20.8999C46.1696 21.0619 46.6481 21.2646 47.1075 21.506C47.6257 18.1877 47.1046 15.9302 45.3172 13.8841C43.35 11.6315 39.7954 10.6667 35.2462 10.6667H22.044C21.115 10.6667 20.3233 11.3455 20.1783 12.2686L14.6807 47.2824C14.6287 47.6111 14.7227 47.9461 14.938 48.1992C15.1534 48.4523 15.4684 48.5982 15.8001 48.5983H23.9513L28.198 21.5496C28.285 20.9949 28.6398 20.5411 29.1164 20.3113V20.3123Z" fill="black"/>
</svg>
