<svg width="64" height="64" viewBox="0 0 64 64" fill="none" xmlns="http://www.w3.org/2000/svg">
<path fill-rule="evenodd" clip-rule="evenodd" d="M22.0444 14.9332C22.0444 12.5772 23.9543 10.6667 26.3107 10.6667C28.6695 10.669 30.5798 12.5791 30.5778 14.9332V19.1997H26.3107C25.1781 19.1986 24.0923 18.7485 23.2922 17.9483C22.4921 17.1482 22.0432 16.0636 22.0444 14.9332ZM14.933 22.0441H26.3107C28.6671 22.0441 30.5778 23.9546 30.5778 26.3113C30.5778 28.6674 28.6671 30.5778 26.3114 30.5778H14.933C12.5766 30.5778 10.6666 28.6674 10.6666 26.3113C10.6666 23.9546 12.5766 22.0441 14.933 22.0441Z" fill="black"/>
<path fill-rule="evenodd" clip-rule="evenodd" d="M41.9556 14.9332V26.3113V26.312C41.9576 28.6661 40.0472 30.5762 37.6885 30.5786C35.3321 30.5786 33.4221 28.6681 33.4221 26.3106V14.9332C33.4221 12.5772 35.3321 10.6667 37.6885 10.6667C40.0472 10.669 41.9576 12.5791 41.9556 14.9332ZM49.0662 22.0441C51.4226 22.0441 53.3333 23.9546 53.3333 26.3113C53.3353 28.6654 51.425 30.5755 49.0662 30.5778H44.7998V26.3113C44.7998 23.9546 46.7098 22.0441 49.0662 22.0441Z" fill="black"/>
<path fill-rule="evenodd" clip-rule="evenodd" d="M49.0669 41.9559H37.6885V41.9552C36.5559 41.9541 35.47 41.5039 34.6699 40.7038C33.8698 39.9037 33.421 38.8191 33.4221 37.6887C33.4221 35.3327 35.3321 33.4222 37.6885 33.4222H49.0662C51.425 33.4245 53.3353 35.3346 53.3333 37.6887C53.3333 40.0454 51.4226 41.9559 49.0669 41.9559ZM41.9556 49.0668C41.9576 51.4209 40.0472 53.331 37.6885 53.3333C35.3321 53.3333 33.4221 51.4228 33.4221 49.0668V44.8003H37.6885C40.0472 44.8027 41.9576 46.7127 41.9556 49.0668Z" fill="black"/>
<path fill-rule="evenodd" clip-rule="evenodd" d="M11.9144 40.7038C11.1143 39.9037 10.6655 38.8191 10.6666 37.6887C10.6666 35.3327 12.5766 33.4222 14.933 33.4222H19.2001V37.6887C19.2021 40.0428 17.2917 41.9529 14.933 41.9552C13.8004 41.9541 12.7145 41.5039 11.9144 40.7038ZM22.0444 49.0661V37.6887C22.0444 35.3327 23.9543 33.4222 26.3107 33.4222C27.4435 33.4231 28.5295 33.8732 29.3298 34.6733C30.13 35.4735 30.579 36.5582 30.5778 37.6887V49.0668C30.5798 51.4209 28.6695 53.331 26.3107 53.3333C23.9543 53.3333 22.0444 51.4228 22.0444 49.0661Z" fill="black"/>
</svg>
