<svg width="64" height="64" viewBox="0 0 64 64" fill="none" xmlns="http://www.w3.org/2000/svg">
<path d="M22.295 21.2866H11.412L24.233 30.6392C26.0966 29.3773 28.2582 28.0413 30.1963 26.9279L22.295 21.2866V21.2866Z" fill="black"/>
<path d="M38.0976 32.9402C36.2341 34.202 34.3706 35.6124 32.5816 36.9484L42.2719 44H53.2294L38.0976 32.9402Z" fill="black"/>
<path d="M61.0933 18.6553L60.863 18.7474C47.9464 23.9826 34.2766 31.724 22.5341 43.1757L21.6987 44H10.6667L11.9339 42.8124L12.6596 42.1145V42.1145L13.7403 41.1052V41.1052L14.3679 40.5356V40.5356L15.5451 39.4979V39.4979L16.6065 38.5943V38.5943L17.4733 37.8772V37.8772L18.4014 37.1289V37.1289L19.3913 36.3517V36.3517L20.0859 35.8186V35.8186L20.8084 35.2744V35.2744L21.9449 34.4385V34.4385L22.738 33.8693V33.8693L23.5596 33.2913V33.2913L24.4099 32.7051V32.7051L25.2891 32.1114V32.1114L26.1974 31.511V31.511L27.1348 30.9044C27.2935 30.8028 27.4534 30.701 27.6146 30.599L28.5962 29.9845C28.7623 29.8817 28.9296 29.7787 29.0982 29.6756L30.1244 29.0547V29.0547L31.1805 28.4303C31.359 28.326 31.5388 28.2216 31.7198 28.1171L32.8211 27.4889V27.4889L33.9528 26.8589C34.3351 26.6487 34.7225 26.4384 35.115 26.2279L36.3079 25.5965V25.5965L37.5317 24.9653V24.9653L38.7865 24.3351V24.3351L40.0726 23.7065C40.2895 23.6019 40.5078 23.4974 40.7274 23.393L42.0606 22.7682C42.9599 22.3526 43.8804 21.9392 44.8221 21.5289L46.2508 20.916C47.9364 20.2038 49.6876 19.5025 51.5058 18.8169L53.0807 18.2332C54.4067 17.7502 55.7672 17.2758 57.1624 16.8119L58.8533 16.2604C59.138 16.1693 59.424 16.0787 59.7114 15.9886C60.2133 16.8538 60.6741 17.743 61.0933 18.6553Z" fill="black"/>
</svg>
