<svg width="64" height="64" viewBox="0 0 64 64" fill="none" xmlns="http://www.w3.org/2000/svg">
<path fill-rule="evenodd" clip-rule="evenodd" d="M12.8534 34.2286V25.3333H10.6667V34.3345C10.6667 37.7232 13.0667 39.9471 16.16 39.9471C17.6533 39.9471 19.0401 39.3646 20.0001 38.3586V39.6823H22.1334V25.3333H19.9467V34.2286C19.9467 36.5054 18.4001 38.0409 16.3734 38.0409C14.4 38.0409 12.8534 36.5583 12.8534 34.2286ZM29.5467 30.8929C27.5734 30.8929 25.92 32.5343 25.92 34.5463C25.92 36.5583 27.52 38.1468 29.5467 38.1998C31.5201 38.1998 33.1734 36.5583 33.1734 34.5463C33.1734 32.4814 31.5201 30.8929 29.5467 30.8929ZM44.64 33.5403C44.32 31.9518 42.9867 30.8929 41.44 30.8929C39.8934 30.8929 38.6134 31.9518 38.2401 33.5403H44.64ZM25.92 39.7352H23.8934V25.3862H25.9734V30.6282C26.9334 29.6222 28.2134 29.0397 29.7067 29.0397C32.8001 29.0397 35.2533 31.5283 35.2533 34.5463C35.2533 37.5643 32.8001 40 29.7067 40C28.2134 40 26.88 39.3646 25.92 38.4115V39.7352ZM36.1067 34.4934C36.1067 37.6173 38.56 39.9471 41.7067 39.9471C43.6267 39.9471 45.2267 39.0999 46.24 37.7232L44.7467 36.6113C43.9467 37.6702 42.9333 38.1468 41.7067 38.1468C39.9467 38.1468 38.5067 36.876 38.1867 35.1817H46.7733V34.4934C46.7733 31.3694 44.5334 29.0397 41.4934 29.0397C38.4 29.0397 36.1067 31.5283 36.1067 34.4934ZM53.3334 29.1456V31.1046V31.1576H52.4267C51.0934 31.1576 50.08 32.1636 50.08 33.805V39.7352H48V29.2515H50.08V30.5223C50.56 29.6751 51.4134 29.1456 52.5867 29.1456H53.3334Z" fill="black"/>
</svg>
