<svg width="64" height="64" viewBox="0 0 64 64" fill="none" xmlns="http://www.w3.org/2000/svg">
<path fill-rule="evenodd" clip-rule="evenodd" d="M38.8606 25.3333C35.6417 25.3333 32.7652 26.9992 32.7652 30.0772C32.7652 32.1428 34.5124 33.0832 35.9618 33.8632C36.9891 34.4161 37.8668 34.8885 37.8668 35.624C37.8668 36.3707 37.0099 37.0391 35.5463 37.0391C33.4692 37.0391 31.9167 36.1051 31.9167 36.1051L31.2525 39.2111C31.2525 39.2111 33.0408 40 35.4152 40C38.9344 40 41.7036 38.2523 41.7036 35.1217C41.7036 32.8806 39.8541 31.9007 38.3777 31.1184C37.3969 30.5987 36.5808 30.1663 36.5808 29.5094C36.5808 28.9245 37.2842 28.2836 38.7436 28.2836C40.3903 28.2836 41.7337 28.9628 41.7337 28.9628L42.3838 25.963C42.3838 25.963 40.9221 25.3333 38.8606 25.3333ZM9.41125 25.5597L9.33331 26.0125C9.33331 26.0125 10.6875 26.26 11.9071 26.7536C13.4775 27.3197 13.5894 27.6492 13.8539 28.6728L16.7359 39.7665H20.5993L26.5512 25.5597H22.6967L18.8722 35.219L17.3116 27.0313C17.1685 26.0943 16.4436 25.5597 15.5562 25.5597H9.41125ZM25.0774 39.7665L28.1012 25.5597H31.7662L28.753 39.7665H25.0774ZM48.6014 25.5597C47.7151 25.5597 47.2455 26.0335 46.9009 26.8615L41.5159 39.7665H45.3704L46.1162 37.6157H50.8121L51.2656 39.7665H54.6666L51.6996 25.5597H48.6014ZM50.2453 34.729L49.1027 29.398L47.1843 34.729H50.2453Z" fill="black"/>
</svg>
