<svg width="49" height="48" viewBox="0 0 49 48" fill="none" xmlns="http://www.w3.org/2000/svg">
<circle cx="24.8999" cy="24" r="24" fill="#F9F9F9"/>
<path d="M15.8817 10.9548L24.8999 10L33.9181 10.9548L40.8999 20.341L24.8999 39L8.8999 20.341L15.8817 10.9548Z" fill="#FDB300"/>
<path d="M15.3807 20.3411L24.8999 39.0001L8.8999 20.3411H15.3807Z" fill="#EA6C00"/>
<path d="M34.4191 20.3411L24.8999 39.0001L40.8999 20.3411H34.4191Z" fill="#EA6C00"/>
<path d="M15.3806 20.3411H34.419L24.8998 39.0001L15.3806 20.3411Z" fill="#FDAD00"/>
<path d="M24.8998 10L15.8816 10.9548L15.3806 20.341L24.8998 10Z" fill="#FDD231"/>
<path d="M24.8997 10L33.918 10.9548L34.4189 20.341L24.8997 10Z" fill="#FDD231"/>
<path d="M40.8999 20.341L33.918 10.9548L34.4191 20.341H40.8999Z" fill="#FDAD00"/>
<path d="M8.8999 20.341L15.8817 10.9548L15.3807 20.341H8.8999Z" fill="#FDAD00"/>
<path d="M24.8998 10L15.3806 20.341H34.419L24.8998 10Z" fill="#FEEEB7"/>
</svg>
